<?xml version="1.0" encoding="utf-8"?>
<!-- Svg Vector Icons : http://www.onlinewebfonts.com/icon -->
<!DOCTYPE svg PUBLIC "-//W3C//DTD SVG 1.1//EN" "http://www.w3.org/Graphics/SVG/1.1/DTD/svg11.dtd">
<svg version="1.1" xmlns="http://www.w3.org/2000/svg" xmlns:xlink="http://www.w3.org/1999/xlink" x="0px" y="0px" viewBox="0 0 1000 1000" enable-background="new 0 0 1000 1000" xml:space="preserve">
<metadata> Svg Vector Icons : http://www.onlinewebfonts.com/icon </metadata>
<g><g transform="translate(0.000000,512.000000) scale(0.100000,-0.100000)"><path d="M3558.3,4994.3c-176.3-49.8-379.4-191.6-454.1-318l-30.6-51.7l-433-7.7c-419.6-5.7-436.8-7.7-538.4-55.6c-141.8-67.1-222.2-137.9-289.3-258.7l-57.5-101.5l-616.9-5.8c-601.6-5.7-618.8-7.7-699.3-49.8c-126.5-67.1-228-168.6-285.5-287.4L100,3749V-293.6v-4042.6l47.9-95.8c59.4-122.6,174.4-237.6,297-297l95.8-47.9H3769h3228.3l120.7,65.1c134.1,72.8,191.6,132.2,268.2,277.8l51.7,97.7l5.7,1676.4l3.8,1676.4l1136.1,1140c854.5,858.3,1149.6,1164.9,1187.9,1239.6c69,130.3,128.4,367.9,128.4,511.6c-1.9,480.9-337.2,912-804.7,1036.5c-134.1,36.4-402.4,36.4-536.5,0c-243.3-65.1-331.5-126.4-731.9-523l-377.4-373.6l-5.7,850.7L7438,3749l-53.6,109.2c-57.5,118.8-159,220.3-285.5,287.4c-80.5,42.1-97.7,44.1-699.3,49.8l-616.9,5.8l-57.5,101.5c-67.1,120.7-147.5,191.6-289.3,258.7c-101.5,47.9-120.7,49.8-536.5,57.5l-431.1,5.8l-57.5,78.5c-76.6,105.4-224.2,214.6-354.4,264.4C3916.5,5021.2,3696.2,5032.7,3558.3,4994.3z M3958.7,4563.3c82.4-40.2,149.4-118.8,203.1-233.7c55.6-122.6,93.9-130.3,641.8-130.3h482.8l55.6-55.6c51.7-51.7,55.6-67.1,55.6-201.2v-145.6H3769H2140.5v141.8c0,124.5,5.7,151.4,46,197.3l46,53.6l517.3,9.6l519.2,9.6l57.5,55.6c32.6,32.6,59.4,67.1,59.4,78.6c0,13.4,24.9,59.4,57.5,101.5C3564,4611.2,3772.8,4659.1,3958.7,4563.3z M1719,3681.9c0-126.5,32.6-210.8,99.6-256.7c38.3-26.8,252.9-30.7,1950.4-30.7c1732,0,1912.1,1.9,1952.3,30.7c61.3,44.1,97.7,141.8,97.7,266.3v105.4h526.9c442.6,0,538.4-5.7,586.3-30.7c113-57.5,113-63.2,113-1141.9v-982.9l-561.4-561.4l-561.4-559.5H4311.2c-1218.5,0-1624.7-5.7-1663-23c-61.3-26.8-105.4-107.3-105.4-189.7c0-42.1,19.2-78.6,65.1-124.5l65.1-65.1h1423.5h1425.4L4909-494.8l-613.1-613.1h-810.4h-812.4L2608-1173c-72.8-72.8-84.3-147.5-38.3-239.5c49.8-93.9,74.7-97.7,835.3-97.7c390.8,0,708.9-5.7,708.9-13.4c0-9.6-65.1-285.5-147.5-613.1l-149.4-599.7h-542.2c-597.8,0-647.6-7.7-701.2-113c-38.3-72.8-38.3-122.6,0-195.4c53.6-107.3,97.7-113,774-113h613.1l866,212.7l867.9,212.7l661,659.1c364,362.1,668.7,659.1,676.3,659.1c7.7,0,13.4-626.5,13.4-1391c0-1542.3,3.8-1486.8-124.5-1548.1c-57.5-26.8-379.4-30.7-3151.7-30.7c-3423.8,0-3182.4-9.6-3245.6,124.5c-26.8,57.5-30.7,450.2-30.7,3962.1c0,2849,5.7,3914.3,21.1,3958.3c13.4,34.5,49.8,78.6,82.4,99.6c53.7,32.6,101.5,36.4,592,36.4H1719V3681.9z M9122.1,2496c335.3-164.8,465.6-572.9,285.5-904.3c-24.9-47.9-155.2-197.3-289.3-329.5L8875,1018.8l-469.4,469.4l-469.4,469.4l220.3,220.3c120.7,122.6,252.9,243.3,293.1,272.1C8648.9,2587.9,8899.9,2605.2,9122.1,2496z M7160.2-696c-785.5-785.5-1433.1-1427.4-1438.9-1427.4c-5.8,0-28.7,36.4-47.9,80.5c-139.9,310.4-446.4,620.8-774,783.6l-120.7,59.4l1435,1435l1435,1435l469.4-469.4l469.4-469.4L7160.2-696z M4715.5-1623.3c191.6-92,377.4-258.7,503.9-448.3c90.1-134.1,157.1-289.3,136-312.3c-19.2-17.2-1072.9-277.8-1082.5-268.2c-5.7,5.8,42.2,224.2,107.3,484.7c153.3,616.9,155.2,618.8,168.6,618.8C4556.5-1548.6,4631.2-1583,4715.5-1623.3z"/><path d="M1320.5,2536.2c-126.5-46-226.1-124.5-304.6-241.4c-82.4-120.7-107.3-222.3-97.7-385.1c15.3-222.2,136-404.3,337.2-502c147.5-72.8,364-74.7,515.4-7.7c249.1,111.1,404.3,404.3,350.6,666.7C2046.6,2434.7,1663.4,2658.8,1320.5,2536.2z M1667.2,2091.7c141.8-157.1-26.8-400.4-222.2-318c-70.9,28.7-128.4,113-128.4,183.9c0,69,57.5,155.2,120.7,183.9C1521.6,2177.9,1604,2160.7,1667.2,2091.7z"/><path d="M2663.5,2139.6c-63.2-26.8-120.7-113-120.7-182c0-70.9,57.5-155.2,124.5-183.9c97.7-40.2,3734.2-40.2,3830,0c136,57.5,170.5,210.8,70.9,321.9l-55.5,63.2l-1894.9,3.8C3035.2,2166.4,2715.2,2162.6,2663.5,2139.6z"/><path d="M1372.2,915.3c-277.8-74.7-457.9-306.6-457.9-592c0-65.1,15.3-160.9,32.6-212.7c49.8-136,189.7-281.6,333.4-344.9c101.5-46,136-53.7,264.4-46c339.1,15.3,582.4,264.4,584.4,597.8c1.9,289.3-178.2,523.1-461.7,595.9C1538.9,947.9,1491,947.9,1372.2,915.3z M1663.4,465.1c128.4-128.4,30.7-346.8-155.2-346.8c-84.3,0-191.6,107.3-191.6,191.6c0,126.5,82.4,208.8,206.9,210.8C1590.6,520.6,1617.4,509.2,1663.4,465.1z"/><path d="M1297.5-738.1c-122.6-44.1-308.5-233.7-350.6-358.3c-137.9-406.2,149.4-820,569-823.9c243.3-1.9,442.6,124.5,551.8,348.7c53.6,107.3,61.3,145.6,61.3,262.5c-3.8,346.8-270.1,605.4-616.9,601.6C1441.2-707.5,1345.4-722.8,1297.5-738.1z M1621.2-1134.7c111.1-57.5,132.2-228,42.2-320c-92-90-262.5-69-320,42.2c-46,92-34.5,166.7,38.3,239.5C1454.6-1100.2,1529.3-1088.7,1621.2-1134.7z"/><path d="M1320.5-2368.6c-126.5-46-226.1-124.5-304.6-241.4c-82.4-120.7-107.3-222.2-97.7-385.1c15.3-222.2,136-404.2,337.2-502c147.5-72.8,364-74.7,515.4-7.7c249.1,111.1,404.3,404.3,350.6,666.7C2046.6-2470.1,1663.4-2245.9,1320.5-2368.6z M1667.2-2815c143.7-155.2-26.8-398.5-222.2-316.1c-70.9,28.7-128.4,113-128.4,183.9c0,69,57.5,155.2,120.7,182C1519.7-2728.8,1602.1-2746,1667.2-2815z"/></g></g>
</svg>